<svg height="496pt" viewBox="0 0 496 496" width="496pt" xmlns="http://www.w3.org/2000/svg"><path d="m408 408v32h-288v-32zm0 0" fill="#ff826e"/><path d="m440 376v64h-32v-64zm0 0" fill="#fcd770"/><path d="m408 376v32h-288v-32zm0 0" fill="#fcd770"/><path d="m478.640625 385.359375c5.757813 5.839844 9.359375 13.839844 9.359375 22.640625 0 17.679688-14.320312 32-32 32h-16v-64h16c8.800781 0 16.800781 3.601562 22.640625 9.359375zm0 0" fill="#e6e9ed"/><path d="m120 408v32l-40.878906-20.398438c-4.320313-2.242187-7.121094-6.722656-7.121094-11.601562s2.800781-9.359375 7.121094-11.601562l40.878906-20.398438zm0 0" fill="#969faa"/><path d="m8 312v-288c0-8.800781 7.199219-16 16-16h112v80h112v-80h112c8.800781 0 16 7.199219 16 16v144h-176v160h-176c-8.800781 0-16-7.199219-16-16zm0 0" fill="#dfb28b"/><g fill="#e6e9ed"><path d="m424 440v48h-224v-48zm0 0"/><path d="m376 168h-176v208h224v-208zm0 0"/><path d="m136 8h112v80h-112zm0 0"/></g><path d="m456 368h-24v-208h-48v-136c0-13.230469-10.769531-24-24-24h-336c-13.230469 0-24 10.769531-24 24v288c0 13.230469 10.769531 24 24 24h168v32h-73.886719l-42.527343 21.265625c-7.144532 3.566406-11.585938 10.75-11.585938 18.734375s4.441406 15.167969 11.574219 18.734375l42.539062 21.265625h73.886719v48h240v-48h24c22.054688 0 40-17.945312 40-40s-17.945312-40-40-40zm-56 32h-272v-16h272zm-272 16h272v16h-272zm288-32h16v48h-16zm-272-368h96v64h-96zm-120 304c-4.414062 0-8-3.59375-8-8v-288c0-4.40625 3.585938-8 8-8h104v80h128v-80h104c4.414062 0 8 3.59375 8 8v136h-176v160zm184-144h208v192h-208zm-128 232c0-1.886719 1.046875-3.574219 2.734375-4.425781l29.265625-14.628907v38.109376l-29.265625-14.628907c-1.6875-.851562-2.734375-2.539062-2.734375-4.425781zm336 72h-208v-32h208zm40-48h-8v-48h8c13.230469 0 24 10.769531 24 24s-10.769531 24-24 24zm0 0"/><path d="m224 192h176v16h-176zm0 0"/><path d="m224 224h16v16h-16zm0 0"/><path d="m256 224h144v16h-144zm0 0"/><path d="m224 256h176v16h-176zm0 0"/><path d="m224 288h176v16h-176zm0 0"/><path d="m384 320h16v16h-16zm0 0"/><path d="m224 320h144v16h-144zm0 0"/><path d="m32 288h64v16h-64zm0 0"/><path d="m112 288h16v16h-16zm0 0"/><path d="m32 256h96v16h-96zm0 0"/></svg>